<?xml version="1.0" encoding="UTF-8" standalone="no"?>
<!DOCTYPE svg PUBLIC "-//W3C//DTD SVG 1.1//EN"
 "http://www.w3.org/Graphics/SVG/1.1/DTD/svg11.dtd">
<!-- Generated by graphviz version 2.46.0 (20210119.1425)
 -->
<!-- Title: dependencies Pages: 1 -->
<svg width="504pt" height="211pt"
 viewBox="0.00 0.00 504.00 211.00" xmlns="http://www.w3.org/2000/svg" xmlns:xlink="http://www.w3.org/1999/xlink">
<g id="graph0" class="graph" transform="scale(1 1) rotate(0) translate(4 207)">
<title>dependencies</title>
<polygon fill="white" stroke="transparent" points="-4,4 -4,-207 500,-207 500,4 -4,4"/>
<text text-anchor="start" x="227.01" y="-42.4" font-family="sans-serif" font-weight="bold" font-size="14.00">Legend</text>
<polygon fill="#ffffb3" stroke="transparent" points="14,-10 14,-30 34,-30 34,-10 14,-10"/>
<text text-anchor="start" x="37.63" y="-15.4" font-family="sans-serif" font-size="14.00"> &#160;Declarations</text>
<polygon fill="#8dd3c7" stroke="transparent" points="127,-10 127,-30 147,-30 147,-10 127,-10"/>
<text text-anchor="start" x="150.73" y="-15.4" font-family="sans-serif" font-size="14.00"> &#160;Module</text>
<polygon fill="#80b1d3" stroke="transparent" points="213,-10 213,-30 233,-30 233,-10 213,-10"/>
<text text-anchor="start" x="236.78" y="-15.4" font-family="sans-serif" font-size="14.00"> &#160;Bootstrap</text>
<polygon fill="#fdb462" stroke="transparent" points="310,-10 310,-30 330,-30 330,-10 310,-10"/>
<text text-anchor="start" x="333.67" y="-15.4" font-family="sans-serif" font-size="14.00"> &#160;Providers</text>
<polygon fill="#fb8072" stroke="transparent" points="406,-10 406,-30 426,-30 426,-10 406,-10"/>
<text text-anchor="start" x="429.73" y="-15.4" font-family="sans-serif" font-size="14.00"> &#160;Exports</text>
<g id="clust1" class="cluster">
<title>cluster_GetInTouchModule</title>
<polygon fill="none" stroke="black" stroke-dasharray="1,5" points="80,-70 80,-195 416,-195 416,-70 80,-70"/>
</g>
<g id="clust4" class="cluster">
<title>cluster_GetInTouchModule_imports</title>
<polygon fill="none" stroke="black" points="260,-78 260,-130 408,-130 408,-78 260,-78"/>
</g>
<g id="clust2" class="cluster">
<title>cluster_GetInTouchModule_declarations</title>
<polygon fill="none" stroke="black" points="88,-78 88,-130 252,-130 252,-78 88,-78"/>
</g>
<!-- GetInTouchComponent -->
<g id="node1" class="node">
<title>GetInTouchComponent</title>
<polygon fill="#ffffb3" stroke="black" points="244.47,-122 95.53,-122 95.53,-86 244.47,-86 244.47,-122"/>
<text text-anchor="middle" x="170" y="-99.8" font-family="Times,serif" font-size="14.00">GetInTouchComponent</text>
</g>
<!-- GetInTouchModule -->
<g id="node2" class="node">
<title>GetInTouchModule</title>
<polygon fill="#8dd3c7" stroke="black" points="315.69,-187 312.69,-191 291.69,-191 288.69,-187 188.31,-187 188.31,-151 315.69,-151 315.69,-187"/>
<text text-anchor="middle" x="252" y="-164.8" font-family="Times,serif" font-size="14.00">GetInTouchModule</text>
</g>
<!-- GetInTouchComponent&#45;&gt;GetInTouchModule -->
<g id="edge1" class="edge">
<title>GetInTouchComponent&#45;&gt;GetInTouchModule</title>
<path fill="none" stroke="black" d="M216.45,-122.11C216.45,-122.11 216.45,-140.99 216.45,-140.99"/>
<polygon fill="black" stroke="black" points="212.95,-140.99 216.45,-150.99 219.95,-140.99 212.95,-140.99"/>
</g>
<!-- AppMaterialModule -->
<g id="node3" class="node">
<title>AppMaterialModule</title>
<polygon fill="#8dd3c7" stroke="black" points="399.58,-122 396.58,-126 375.58,-126 372.58,-122 268.42,-122 268.42,-86 399.58,-86 399.58,-122"/>
<text text-anchor="middle" x="334" y="-99.8" font-family="Times,serif" font-size="14.00">AppMaterialModule</text>
</g>
<!-- AppMaterialModule&#45;&gt;GetInTouchModule -->
<g id="edge2" class="edge">
<title>AppMaterialModule&#45;&gt;GetInTouchModule</title>
<path fill="none" stroke="black" d="M292.03,-122.11C292.03,-122.11 292.03,-140.99 292.03,-140.99"/>
<polygon fill="black" stroke="black" points="288.53,-140.99 292.03,-150.99 295.53,-140.99 288.53,-140.99"/>
</g>
</g>
</svg>
