<?xml version="1.0" encoding="UTF-8" standalone="no"?>
<!DOCTYPE svg PUBLIC "-//W3C//DTD SVG 1.1//EN"
 "http://www.w3.org/Graphics/SVG/1.1/DTD/svg11.dtd">
<!-- Generated by graphviz version 2.46.0 (20210119.1425)
 -->
<!-- Title: dependencies Pages: 1 -->
<svg width="605pt" height="211pt"
 viewBox="0.00 0.00 605.00 211.00" xmlns="http://www.w3.org/2000/svg" xmlns:xlink="http://www.w3.org/1999/xlink">
<g id="graph0" class="graph" transform="scale(1 1) rotate(0) translate(4 207)">
<title>dependencies</title>
<polygon fill="white" stroke="transparent" points="-4,4 -4,-207 601,-207 601,4 -4,4"/>
<text text-anchor="start" x="277.51" y="-42.4" font-family="sans-serif" font-weight="bold" font-size="14.00">Legend</text>
<polygon fill="#ffffb3" stroke="transparent" points="64.5,-10 64.5,-30 84.5,-30 84.5,-10 64.5,-10"/>
<text text-anchor="start" x="88.13" y="-15.4" font-family="sans-serif" font-size="14.00"> &#160;Declarations</text>
<polygon fill="#8dd3c7" stroke="transparent" points="177.5,-10 177.5,-30 197.5,-30 197.5,-10 177.5,-10"/>
<text text-anchor="start" x="201.23" y="-15.4" font-family="sans-serif" font-size="14.00"> &#160;Module</text>
<polygon fill="#80b1d3" stroke="transparent" points="263.5,-10 263.5,-30 283.5,-30 283.5,-10 263.5,-10"/>
<text text-anchor="start" x="287.28" y="-15.4" font-family="sans-serif" font-size="14.00"> &#160;Bootstrap</text>
<polygon fill="#fdb462" stroke="transparent" points="360.5,-10 360.5,-30 380.5,-30 380.5,-10 360.5,-10"/>
<text text-anchor="start" x="384.17" y="-15.4" font-family="sans-serif" font-size="14.00"> &#160;Providers</text>
<polygon fill="#fb8072" stroke="transparent" points="456.5,-10 456.5,-30 476.5,-30 476.5,-10 456.5,-10"/>
<text text-anchor="start" x="480.23" y="-15.4" font-family="sans-serif" font-size="14.00"> &#160;Exports</text>
<g id="clust1" class="cluster">
<title>cluster_FileUploadModule</title>
<polygon fill="none" stroke="black" stroke-dasharray="1,5" points="8,-70 8,-195 589,-195 589,-70 8,-70"/>
</g>
<g id="clust2" class="cluster">
<title>cluster_FileUploadModule_declarations</title>
<polygon fill="none" stroke="black" points="172,-78 172,-130 581,-130 581,-78 172,-78"/>
</g>
<g id="clust6" class="cluster">
<title>cluster_FileUploadModule_imports</title>
<polygon fill="none" stroke="black" points="16,-78 16,-130 164,-130 164,-78 16,-78"/>
</g>
<!-- DropZoneDirective -->
<g id="node1" class="node">
<title>DropZoneDirective</title>
<polygon fill="#ffffb3" stroke="black" points="572.62,-122 447.38,-122 447.38,-86 572.62,-86 572.62,-122"/>
<text text-anchor="middle" x="510" y="-99.8" font-family="Times,serif" font-size="14.00">DropZoneDirective</text>
</g>
<!-- FileUploadModule -->
<g id="node4" class="node">
<title>FileUploadModule</title>
<polygon fill="#8dd3c7" stroke="black" points="380.04,-187 377.04,-191 356.04,-191 353.04,-187 257.96,-187 257.96,-151 380.04,-151 380.04,-187"/>
<text text-anchor="middle" x="319" y="-164.8" font-family="Times,serif" font-size="14.00">FileUploadModule</text>
</g>
<!-- DropZoneDirective&#45;&gt;FileUploadModule -->
<g id="edge1" class="edge">
<title>DropZoneDirective&#45;&gt;FileUploadModule</title>
<path fill="none" stroke="black" d="M510,-122.11C510,-141.34 510,-169 510,-169 510,-169 390.22,-169 390.22,-169"/>
<polygon fill="black" stroke="black" points="390.22,-165.5 380.22,-169 390.22,-172.5 390.22,-165.5"/>
</g>
<!-- FileSizePipe -->
<g id="node2" class="node">
<title>FileSizePipe</title>
<polygon fill="#ffffb3" stroke="black" points="429.27,-122 342.73,-122 342.73,-86 429.27,-86 429.27,-122"/>
<text text-anchor="middle" x="386" y="-99.8" font-family="Times,serif" font-size="14.00">FileSizePipe</text>
</g>
<!-- FileSizePipe&#45;&gt;FileUploadModule -->
<g id="edge2" class="edge">
<title>FileSizePipe&#45;&gt;FileUploadModule</title>
<path fill="none" stroke="black" d="M361.44,-122.11C361.44,-122.11 361.44,-140.99 361.44,-140.99"/>
<polygon fill="black" stroke="black" points="357.94,-140.99 361.44,-150.99 364.94,-140.99 357.94,-140.99"/>
</g>
<!-- FileUploadComponent -->
<g id="node3" class="node">
<title>FileUploadComponent</title>
<polygon fill="#ffffb3" stroke="black" points="324.32,-122 179.68,-122 179.68,-86 324.32,-86 324.32,-122"/>
<text text-anchor="middle" x="252" y="-99.8" font-family="Times,serif" font-size="14.00">FileUploadComponent</text>
</g>
<!-- FileUploadComponent&#45;&gt;FileUploadModule -->
<g id="edge3" class="edge">
<title>FileUploadComponent&#45;&gt;FileUploadModule</title>
<path fill="none" stroke="black" d="M290.95,-122.11C290.95,-122.11 290.95,-140.99 290.95,-140.99"/>
<polygon fill="black" stroke="black" points="287.45,-140.99 290.95,-150.99 294.45,-140.99 287.45,-140.99"/>
</g>
<!-- AppMaterialModule -->
<g id="node5" class="node">
<title>AppMaterialModule</title>
<polygon fill="#8dd3c7" stroke="black" points="155.58,-122 152.58,-126 131.58,-126 128.58,-122 24.42,-122 24.42,-86 155.58,-86 155.58,-122"/>
<text text-anchor="middle" x="90" y="-99.8" font-family="Times,serif" font-size="14.00">AppMaterialModule</text>
</g>
<!-- AppMaterialModule&#45;&gt;FileUploadModule -->
<g id="edge4" class="edge">
<title>AppMaterialModule&#45;&gt;FileUploadModule</title>
<path fill="none" stroke="black" d="M90,-122.11C90,-141.34 90,-169 90,-169 90,-169 247.93,-169 247.93,-169"/>
<polygon fill="black" stroke="black" points="247.93,-172.5 257.93,-169 247.93,-165.5 247.93,-172.5"/>
</g>
</g>
</svg>
