<?xml version="1.0" encoding="UTF-8" standalone="no"?>
<!DOCTYPE svg PUBLIC "-//W3C//DTD SVG 1.1//EN"
 "http://www.w3.org/Graphics/SVG/1.1/DTD/svg11.dtd">
<!-- Generated by graphviz version 2.46.0 (20210119.1425)
 -->
<!-- Title: dependencies Pages: 1 -->
<svg width="504pt" height="211pt"
 viewBox="0.00 0.00 504.00 211.00" xmlns="http://www.w3.org/2000/svg" xmlns:xlink="http://www.w3.org/1999/xlink">
<g id="graph0" class="graph" transform="scale(1 1) rotate(0) translate(4 207)">
<title>dependencies</title>
<polygon fill="white" stroke="transparent" points="-4,4 -4,-207 500,-207 500,4 -4,4"/>
<text text-anchor="start" x="227.01" y="-42.4" font-family="sans-serif" font-weight="bold" font-size="14.00">Legend</text>
<polygon fill="#ffffb3" stroke="transparent" points="14,-10 14,-30 34,-30 34,-10 14,-10"/>
<text text-anchor="start" x="37.63" y="-15.4" font-family="sans-serif" font-size="14.00"> &#160;Declarations</text>
<polygon fill="#8dd3c7" stroke="transparent" points="127,-10 127,-30 147,-30 147,-10 127,-10"/>
<text text-anchor="start" x="150.73" y="-15.4" font-family="sans-serif" font-size="14.00"> &#160;Module</text>
<polygon fill="#80b1d3" stroke="transparent" points="213,-10 213,-30 233,-30 233,-10 213,-10"/>
<text text-anchor="start" x="236.78" y="-15.4" font-family="sans-serif" font-size="14.00"> &#160;Bootstrap</text>
<polygon fill="#fdb462" stroke="transparent" points="310,-10 310,-30 330,-30 330,-10 310,-10"/>
<text text-anchor="start" x="333.67" y="-15.4" font-family="sans-serif" font-size="14.00"> &#160;Providers</text>
<polygon fill="#fb8072" stroke="transparent" points="406,-10 406,-30 426,-30 426,-10 406,-10"/>
<text text-anchor="start" x="429.73" y="-15.4" font-family="sans-serif" font-size="14.00"> &#160;Exports</text>
<g id="clust1" class="cluster">
<title>cluster_BlogDetailModule</title>
<polygon fill="none" stroke="black" stroke-dasharray="1,5" points="83,-70 83,-195 413,-195 413,-70 83,-70"/>
</g>
<g id="clust2" class="cluster">
<title>cluster_BlogDetailModule_declarations</title>
<polygon fill="none" stroke="black" points="247,-78 247,-130 405,-130 405,-78 247,-78"/>
</g>
<g id="clust4" class="cluster">
<title>cluster_BlogDetailModule_imports</title>
<polygon fill="none" stroke="black" points="91,-78 91,-130 239,-130 239,-78 91,-78"/>
</g>
<!-- BlogDetailComponent -->
<g id="node1" class="node">
<title>BlogDetailComponent</title>
<polygon fill="#ffffb3" stroke="black" points="397.27,-122 254.73,-122 254.73,-86 397.27,-86 397.27,-122"/>
<text text-anchor="middle" x="326" y="-99.8" font-family="Times,serif" font-size="14.00">BlogDetailComponent</text>
</g>
<!-- BlogDetailModule -->
<g id="node2" class="node">
<title>BlogDetailModule</title>
<polygon fill="#8dd3c7" stroke="black" points="305.48,-187 302.48,-191 281.48,-191 278.48,-187 184.52,-187 184.52,-151 305.48,-151 305.48,-187"/>
<text text-anchor="middle" x="245" y="-164.8" font-family="Times,serif" font-size="14.00">BlogDetailModule</text>
</g>
<!-- BlogDetailComponent&#45;&gt;BlogDetailModule -->
<g id="edge1" class="edge">
<title>BlogDetailComponent&#45;&gt;BlogDetailModule</title>
<path fill="none" stroke="black" d="M280.05,-122.11C280.05,-122.11 280.05,-140.99 280.05,-140.99"/>
<polygon fill="black" stroke="black" points="276.55,-140.99 280.05,-150.99 283.55,-140.99 276.55,-140.99"/>
</g>
<!-- AppMaterialModule -->
<g id="node3" class="node">
<title>AppMaterialModule</title>
<polygon fill="#8dd3c7" stroke="black" points="230.58,-122 227.58,-126 206.58,-126 203.58,-122 99.42,-122 99.42,-86 230.58,-86 230.58,-122"/>
<text text-anchor="middle" x="165" y="-99.8" font-family="Times,serif" font-size="14.00">AppMaterialModule</text>
</g>
<!-- AppMaterialModule&#45;&gt;BlogDetailModule -->
<g id="edge2" class="edge">
<title>AppMaterialModule&#45;&gt;BlogDetailModule</title>
<path fill="none" stroke="black" d="M207.52,-122.11C207.52,-122.11 207.52,-140.99 207.52,-140.99"/>
<polygon fill="black" stroke="black" points="204.02,-140.99 207.52,-150.99 211.02,-140.99 204.02,-140.99"/>
</g>
</g>
</svg>
