<?xml version="1.0" encoding="UTF-8" standalone="no"?>
<!DOCTYPE svg PUBLIC "-//W3C//DTD SVG 1.1//EN"
 "http://www.w3.org/Graphics/SVG/1.1/DTD/svg11.dtd">
<!-- Generated by graphviz version 2.46.0 (20210119.1425)
 -->
<!-- Title: dependencies Pages: 1 -->
<svg width="820pt" height="284pt"
 viewBox="0.00 0.00 820.00 284.00" xmlns="http://www.w3.org/2000/svg" xmlns:xlink="http://www.w3.org/1999/xlink">
<g id="graph0" class="graph" transform="scale(1 1) rotate(0) translate(4 280)">
<title>dependencies</title>
<polygon fill="white" stroke="transparent" points="-4,4 -4,-280 816,-280 816,4 -4,4"/>
<text text-anchor="start" x="385.01" y="-42.4" font-family="sans-serif" font-weight="bold" font-size="14.00">Legend</text>
<polygon fill="#ffffb3" stroke="transparent" points="172,-10 172,-30 192,-30 192,-10 172,-10"/>
<text text-anchor="start" x="195.63" y="-15.4" font-family="sans-serif" font-size="14.00"> &#160;Declarations</text>
<polygon fill="#8dd3c7" stroke="transparent" points="285,-10 285,-30 305,-30 305,-10 285,-10"/>
<text text-anchor="start" x="308.73" y="-15.4" font-family="sans-serif" font-size="14.00"> &#160;Module</text>
<polygon fill="#80b1d3" stroke="transparent" points="371,-10 371,-30 391,-30 391,-10 371,-10"/>
<text text-anchor="start" x="394.78" y="-15.4" font-family="sans-serif" font-size="14.00"> &#160;Bootstrap</text>
<polygon fill="#fdb462" stroke="transparent" points="468,-10 468,-30 488,-30 488,-10 468,-10"/>
<text text-anchor="start" x="491.67" y="-15.4" font-family="sans-serif" font-size="14.00"> &#160;Providers</text>
<polygon fill="#fb8072" stroke="transparent" points="564,-10 564,-30 584,-30 584,-10 564,-10"/>
<text text-anchor="start" x="587.73" y="-15.4" font-family="sans-serif" font-size="14.00"> &#160;Exports</text>
<g id="clust1" class="cluster">
<title>cluster_ComponentsModule</title>
<polygon fill="none" stroke="black" stroke-dasharray="1,5" points="8,-70 8,-268 804,-268 804,-70 8,-70"/>
</g>
<g id="clust8" class="cluster">
<title>cluster_ComponentsModule_exports</title>
<polygon fill="none" stroke="black" points="90,-208 90,-260 726,-260 726,-208 90,-208"/>
</g>
<g id="clust2" class="cluster">
<title>cluster_ComponentsModule_declarations</title>
<polygon fill="none" stroke="black" points="172,-78 172,-130 796,-130 796,-78 172,-78"/>
</g>
<g id="clust7" class="cluster">
<title>cluster_ComponentsModule_imports</title>
<polygon fill="none" stroke="black" points="16,-78 16,-130 164,-130 164,-78 16,-78"/>
</g>
<!-- FlashCardComponent -->
<g id="node1" class="node">
<title>FlashCardComponent</title>
<polygon fill="#ffffb3" stroke="black" points="788.38,-122 649.62,-122 649.62,-86 788.38,-86 788.38,-122"/>
<text text-anchor="middle" x="719" y="-99.8" font-family="Times,serif" font-size="14.00">FlashCardComponent</text>
</g>
<!-- ComponentsModule -->
<g id="node5" class="node">
<title>ComponentsModule</title>
<polygon fill="#8dd3c7" stroke="black" points="492.33,-187 489.33,-191 468.33,-191 465.33,-187 361.67,-187 361.67,-151 492.33,-151 492.33,-187"/>
<text text-anchor="middle" x="427" y="-164.8" font-family="Times,serif" font-size="14.00">ComponentsModule</text>
</g>
<!-- FlashCardComponent&#45;&gt;ComponentsModule -->
<g id="edge1" class="edge">
<title>FlashCardComponent&#45;&gt;ComponentsModule</title>
<path fill="none" stroke="black" d="M683.88,-122.11C683.88,-141.34 683.88,-169 683.88,-169 683.88,-169 502.49,-169 502.49,-169"/>
<polygon fill="black" stroke="black" points="502.49,-165.5 492.49,-169 502.49,-172.5 502.49,-165.5"/>
</g>
<!-- InvisibleDirective -->
<g id="node2" class="node">
<title>InvisibleDirective</title>
<polygon fill="#ffffb3" stroke="black" points="631.57,-122 514.43,-122 514.43,-86 631.57,-86 631.57,-122"/>
<text text-anchor="middle" x="573" y="-99.8" font-family="Times,serif" font-size="14.00">InvisibleDirective</text>
</g>
<!-- InvisibleDirective&#45;&gt;ComponentsModule -->
<g id="edge2" class="edge">
<title>InvisibleDirective&#45;&gt;ComponentsModule</title>
<path fill="none" stroke="black" d="M536.38,-122.03C536.38,-138.4 536.38,-160 536.38,-160 536.38,-160 502.2,-160 502.2,-160"/>
<polygon fill="black" stroke="black" points="502.2,-156.5 492.2,-160 502.2,-163.5 502.2,-156.5"/>
</g>
<!-- MediaListComponent -->
<g id="node3" class="node">
<title>MediaListComponent</title>
<polygon fill="#ffffb3" stroke="black" points="496.38,-122 357.62,-122 357.62,-86 496.38,-86 496.38,-122"/>
<text text-anchor="middle" x="427" y="-99.8" font-family="Times,serif" font-size="14.00">MediaListComponent</text>
</g>
<!-- MediaListComponent&#45;&gt;ComponentsModule -->
<g id="edge3" class="edge">
<title>MediaListComponent&#45;&gt;ComponentsModule</title>
<path fill="none" stroke="black" d="M427,-122.11C427,-122.11 427,-140.99 427,-140.99"/>
<polygon fill="black" stroke="black" points="423.5,-140.99 427,-150.99 430.5,-140.99 423.5,-140.99"/>
</g>
<!-- UnderlineHoverDirective -->
<g id="node4" class="node">
<title>UnderlineHoverDirective</title>
<polygon fill="#ffffb3" stroke="black" points="339.54,-122 180.46,-122 180.46,-86 339.54,-86 339.54,-122"/>
<text text-anchor="middle" x="260" y="-99.8" font-family="Times,serif" font-size="14.00">UnderlineHoverDirective</text>
</g>
<!-- UnderlineHoverDirective&#45;&gt;ComponentsModule -->
<g id="edge4" class="edge">
<title>UnderlineHoverDirective&#45;&gt;ComponentsModule</title>
<path fill="none" stroke="black" d="M308.67,-122.03C308.67,-138.4 308.67,-160 308.67,-160 308.67,-160 351.6,-160 351.6,-160"/>
<polygon fill="black" stroke="black" points="351.6,-163.5 361.6,-160 351.6,-156.5 351.6,-163.5"/>
</g>
<!-- FlashCardComponent  -->
<g id="node7" class="node">
<title>FlashCardComponent </title>
<polygon fill="#fb8072" stroke="black" points="718.38,-252 575.62,-252 575.62,-216 718.38,-216 718.38,-252"/>
<text text-anchor="middle" x="647" y="-229.8" font-family="Times,serif" font-size="14.00">FlashCardComponent </text>
</g>
<!-- ComponentsModule&#45;&gt;FlashCardComponent  -->
<g id="edge6" class="edge">
<title>ComponentsModule&#45;&gt;FlashCardComponent </title>
<path fill="none" stroke="black" stroke-dasharray="5,2" d="M492.29,-178C542.61,-178 603.67,-178 603.67,-178 603.67,-178 603.67,-205.97 603.67,-205.97"/>
<polygon fill="black" stroke="black" points="600.17,-205.97 603.67,-215.97 607.17,-205.97 600.17,-205.97"/>
</g>
<!-- InvisibleDirective  -->
<g id="node8" class="node">
<title>InvisibleDirective </title>
<polygon fill="#fb8072" stroke="black" points="558.08,-252 437.92,-252 437.92,-216 558.08,-216 558.08,-252"/>
<text text-anchor="middle" x="498" y="-229.8" font-family="Times,serif" font-size="14.00">InvisibleDirective </text>
</g>
<!-- ComponentsModule&#45;&gt;InvisibleDirective  -->
<g id="edge7" class="edge">
<title>ComponentsModule&#45;&gt;InvisibleDirective </title>
<path fill="none" stroke="black" stroke-dasharray="5,2" d="M464.94,-187.11C464.94,-187.11 464.94,-205.99 464.94,-205.99"/>
<polygon fill="black" stroke="black" points="461.44,-205.99 464.94,-215.99 468.44,-205.99 461.44,-205.99"/>
</g>
<!-- MediaListComponent  -->
<g id="node9" class="node">
<title>MediaListComponent </title>
<polygon fill="#fb8072" stroke="black" points="420.38,-252 277.62,-252 277.62,-216 420.38,-216 420.38,-252"/>
<text text-anchor="middle" x="349" y="-229.8" font-family="Times,serif" font-size="14.00">MediaListComponent </text>
</g>
<!-- ComponentsModule&#45;&gt;MediaListComponent  -->
<g id="edge8" class="edge">
<title>ComponentsModule&#45;&gt;MediaListComponent </title>
<path fill="none" stroke="black" stroke-dasharray="5,2" d="M391.01,-187.11C391.01,-187.11 391.01,-205.99 391.01,-205.99"/>
<polygon fill="black" stroke="black" points="387.51,-205.99 391.01,-215.99 394.51,-205.99 387.51,-205.99"/>
</g>
<!-- UnderlineHoverDirective  -->
<g id="node10" class="node">
<title>UnderlineHoverDirective </title>
<polygon fill="#fb8072" stroke="black" points="260.04,-252 97.96,-252 97.96,-216 260.04,-216 260.04,-252"/>
<text text-anchor="middle" x="179" y="-229.8" font-family="Times,serif" font-size="14.00">UnderlineHoverDirective </text>
</g>
<!-- ComponentsModule&#45;&gt;UnderlineHoverDirective  -->
<g id="edge9" class="edge">
<title>ComponentsModule&#45;&gt;UnderlineHoverDirective </title>
<path fill="none" stroke="black" stroke-dasharray="5,2" d="M361.62,-178C301.09,-178 220.38,-178 220.38,-178 220.38,-178 220.38,-205.97 220.38,-205.97"/>
<polygon fill="black" stroke="black" points="216.88,-205.97 220.38,-215.97 223.88,-205.97 216.88,-205.97"/>
</g>
<!-- AppMaterialModule -->
<g id="node6" class="node">
<title>AppMaterialModule</title>
<polygon fill="#8dd3c7" stroke="black" points="155.58,-122 152.58,-126 131.58,-126 128.58,-122 24.42,-122 24.42,-86 155.58,-86 155.58,-122"/>
<text text-anchor="middle" x="90" y="-99.8" font-family="Times,serif" font-size="14.00">AppMaterialModule</text>
</g>
<!-- AppMaterialModule&#45;&gt;ComponentsModule -->
<g id="edge5" class="edge">
<title>AppMaterialModule&#45;&gt;ComponentsModule</title>
<path fill="none" stroke="black" d="M126.63,-122.11C126.63,-141.34 126.63,-169 126.63,-169 126.63,-169 351.82,-169 351.82,-169"/>
<polygon fill="black" stroke="black" points="351.83,-172.5 361.82,-169 351.82,-165.5 351.83,-172.5"/>
</g>
</g>
</svg>
