<?xml version="1.0" encoding="UTF-8" standalone="no"?>
<!DOCTYPE svg PUBLIC "-//W3C//DTD SVG 1.1//EN"
 "http://www.w3.org/Graphics/SVG/1.1/DTD/svg11.dtd">
<!-- Generated by graphviz version 2.46.0 (20210119.1425)
 -->
<!-- Title: dependencies Pages: 1 -->
<svg width="504pt" height="211pt"
 viewBox="0.00 0.00 504.00 211.00" xmlns="http://www.w3.org/2000/svg" xmlns:xlink="http://www.w3.org/1999/xlink">
<g id="graph0" class="graph" transform="scale(1 1) rotate(0) translate(4 207)">
<title>dependencies</title>
<polygon fill="white" stroke="transparent" points="-4,4 -4,-207 500,-207 500,4 -4,4"/>
<text text-anchor="start" x="227.01" y="-42.4" font-family="sans-serif" font-weight="bold" font-size="14.00">Legend</text>
<polygon fill="#ffffb3" stroke="transparent" points="14,-10 14,-30 34,-30 34,-10 14,-10"/>
<text text-anchor="start" x="37.63" y="-15.4" font-family="sans-serif" font-size="14.00"> &#160;Declarations</text>
<polygon fill="#8dd3c7" stroke="transparent" points="127,-10 127,-30 147,-30 147,-10 127,-10"/>
<text text-anchor="start" x="150.73" y="-15.4" font-family="sans-serif" font-size="14.00"> &#160;Module</text>
<polygon fill="#80b1d3" stroke="transparent" points="213,-10 213,-30 233,-30 233,-10 213,-10"/>
<text text-anchor="start" x="236.78" y="-15.4" font-family="sans-serif" font-size="14.00"> &#160;Bootstrap</text>
<polygon fill="#fdb462" stroke="transparent" points="310,-10 310,-30 330,-30 330,-10 310,-10"/>
<text text-anchor="start" x="333.67" y="-15.4" font-family="sans-serif" font-size="14.00"> &#160;Providers</text>
<polygon fill="#fb8072" stroke="transparent" points="406,-10 406,-30 426,-30 426,-10 406,-10"/>
<text text-anchor="start" x="429.73" y="-15.4" font-family="sans-serif" font-size="14.00"> &#160;Exports</text>
<g id="clust1" class="cluster">
<title>cluster_AboutModule</title>
<polygon fill="none" stroke="black" stroke-dasharray="1,5" points="96,-70 96,-195 400,-195 400,-70 96,-70"/>
</g>
<g id="clust4" class="cluster">
<title>cluster_AboutModule_imports</title>
<polygon fill="none" stroke="black" points="244,-78 244,-130 392,-130 392,-78 244,-78"/>
</g>
<g id="clust2" class="cluster">
<title>cluster_AboutModule_declarations</title>
<polygon fill="none" stroke="black" points="104,-78 104,-130 236,-130 236,-78 104,-78"/>
</g>
<!-- AboutComponent -->
<g id="node1" class="node">
<title>AboutComponent</title>
<polygon fill="#ffffb3" stroke="black" points="228.33,-122 111.67,-122 111.67,-86 228.33,-86 228.33,-122"/>
<text text-anchor="middle" x="170" y="-99.8" font-family="Times,serif" font-size="14.00">AboutComponent</text>
</g>
<!-- AboutModule -->
<g id="node2" class="node">
<title>AboutModule</title>
<polygon fill="#8dd3c7" stroke="black" points="291.05,-187 288.05,-191 267.05,-191 264.05,-187 196.95,-187 196.95,-151 291.05,-151 291.05,-187"/>
<text text-anchor="middle" x="244" y="-164.8" font-family="Times,serif" font-size="14.00">AboutModule</text>
</g>
<!-- AboutComponent&#45;&gt;AboutModule -->
<g id="edge1" class="edge">
<title>AboutComponent&#45;&gt;AboutModule</title>
<path fill="none" stroke="black" d="M212.45,-122.11C212.45,-122.11 212.45,-140.99 212.45,-140.99"/>
<polygon fill="black" stroke="black" points="208.95,-140.99 212.45,-150.99 215.95,-140.99 208.95,-140.99"/>
</g>
<!-- AppMaterialModule -->
<g id="node3" class="node">
<title>AppMaterialModule</title>
<polygon fill="#8dd3c7" stroke="black" points="383.58,-122 380.58,-126 359.58,-126 356.58,-122 252.42,-122 252.42,-86 383.58,-86 383.58,-122"/>
<text text-anchor="middle" x="318" y="-99.8" font-family="Times,serif" font-size="14.00">AppMaterialModule</text>
</g>
<!-- AppMaterialModule&#45;&gt;AboutModule -->
<g id="edge2" class="edge">
<title>AppMaterialModule&#45;&gt;AboutModule</title>
<path fill="none" stroke="black" d="M271.87,-122.11C271.87,-122.11 271.87,-140.99 271.87,-140.99"/>
<polygon fill="black" stroke="black" points="268.37,-140.99 271.87,-150.99 275.37,-140.99 268.37,-140.99"/>
</g>
</g>
</svg>
